<svg t="1705330399167" class="icon" viewBox="0 0 1024 1024" version="1.1" xmlns="http://www.w3.org/2000/svg" p-id="17190" width="200" height="200"><path d="M323.072 899.584h405.504c12.8 0 24.576-6.656 31.232-17.92l184.832-320.512c17.408-30.208 17.408-67.072 0-97.28L777.216 174.08c-17.408-30.208-49.664-48.64-84.48-48.64H322.56l56.32 71.68h292.352c22.016 0 42.496 11.776 53.76 31.232l145.92 253.44c11.264 18.944 11.264 43.008 0 61.952l-145.92 253.44c-11.264 19.456-31.744 31.232-53.76 31.232H378.88l-55.808 71.168z" fill="#238FFA" p-id="17191"></path><path d="M644.096 827.904H351.744c-22.016 0-42.496-11.776-53.76-31.232l-145.92-253.44c-11.264-18.944-11.264-43.008 0-61.952l145.92-253.44c11.264-19.456 31.744-31.232 53.76-31.232h292.352l56.32-71.68H330.24c-34.816 0-67.072 18.432-84.48 48.64L79.36 463.872c-17.408 30.208-17.408 67.072 0 97.28l184.832 320.512c6.656 11.264 18.432 17.92 31.232 17.92h405.504l-56.832-71.68z" fill="#238FFA" p-id="17192"></path><path d="M388.096 379.392c29.696 0 50.688 4.096 62.976 12.8 11.264 8.704 17.408 23.552 17.408 44.544 0 12.288-2.048 28.672-5.632 48.64l-28.16 162.816c-1.024 6.144-6.656 10.752-12.8 10.752h-23.552c-8.192 0-14.336-7.68-12.8-15.36l14.336-75.264c1.536-8.192-4.608-15.36-12.8-15.36H313.344c-6.144 0-11.776 4.608-12.8 10.752l-15.36 84.48c-1.024 6.144-6.656 10.752-12.8 10.752h-22.016c-8.192 0-14.336-7.168-12.8-15.36l33.28-182.272c4.608-26.624 10.752-45.056 17.408-54.272 5.632-8.704 12.8-14.848 21.504-18.432 12.288-5.632 34.816-8.704 67.584-8.704l10.752-0.512z m-63.488 134.656h72.704c6.144 0 11.776-4.608 12.8-10.752l3.584-17.92c3.584-18.944 5.632-33.28 5.632-43.008 0-7.68-2.048-13.312-5.632-16.896-1.024-1.024-2.048-2.048-3.584-2.56-6.144-2.048-15.872-3.584-29.696-3.584h-10.24c-18.944 0-32.256 3.072-38.912 8.704-3.072 2.048-5.12 5.12-7.168 10.24-3.072 5.632-5.632 16.384-8.704 31.744l-4.608 29.184c-0.512 7.168 5.632 14.848 13.824 14.848zM640 380.928h11.264c4.608 1.024 10.752 1.536 18.944 2.56 7.68 1.024 13.824 3.584 18.432 8.704 4.608 5.632 7.168 13.312 7.168 23.04 0 10.752-1.536 25.088-4.096 43.008l-7.168 35.84c-3.072 15.36-6.144 27.648-10.24 37.376-4.608 10.752-10.752 17.92-18.432 23.04-5.632 3.584-12.288 6.656-19.968 8.704s-18.432 3.072-32.768 3.072h-57.856c-6.144 0-11.776 4.608-12.8 10.752l-13.312 71.68c-1.024 6.144-6.656 10.752-12.8 10.752h-22.528c-8.192 0-14.336-7.168-12.8-15.36l44.032-251.904c1.024-6.144 6.656-10.752 12.8-10.752H640v-0.512z m1.536 76.8v-0.512c3.072-14.336 4.096-22.016 4.096-24.064 0-6.144-5.12-11.264-11.264-11.776-4.096-0.512-9.216-1.024-15.872-1.024h-47.616c-6.144 0-11.776 4.608-12.8 10.752l-13.824 79.872c-1.536 8.192 4.608 15.36 12.8 15.36h40.448c5.632 0 10.752-0.512 14.336-1.536s7.168-3.072 10.24-5.632c3.072-2.048 5.632-5.12 8.704-10.24 3.072-4.608 5.632-15.36 8.704-31.744l2.048-19.456zM699.904 643.584l44.032-251.904c1.024-6.144 6.656-10.752 12.8-10.752h23.552c8.192 0 14.336 7.168 12.8 15.36l-44.032 251.904c-1.024 6.144-6.656 10.752-12.8 10.752h-23.552c-8.192 0-14.336-7.68-12.8-15.36z" fill="#238FFA" p-id="17193"></path></svg>